<svg data-v-61470d8d="" xmlns="http://www.w3.org/2000/svg" xmlns:xlink="http://www.w3.org/1999/xlink" fill="none" version="1.1" width="16.029022216796875" height="15.999999046325684" viewBox="0 0 16.029022216796875 15.999999046325684"><defs data-v-61470d8d=""><clipPath data-v-61470d8d="" id="master_svg0_427_827"><rect data-v-61470d8d="" x="0" y="0" width="16.029022216796875" height="15.999999046325684" rx="0"></rect></clipPath></defs> <g data-v-61470d8d="" clip-path="url(#master_svg0_427_827)"><g data-v-61470d8d=""><path data-v-61470d8d="" d="M8.014653124999999,1C4.148143125,1,1.001953125,4.14001,1.001953125,8C1.001953125,11.86,4.147653125,15,8.014653124999999,15C11.881153125,15,15.027353125,11.86,15.027353125,8C15.027353125,4.14001,11.881653125,1,8.014653124999999,1ZM10.875333125,10.156C11.070653125,10.352,11.070153125,10.668,10.874333125,10.863C10.776673125,10.96,10.648933125,11.009,10.520703125,11.009C10.391973125,11.009,10.263743125,10.96,10.166053125,10.86201L8.012143125,8.7055L5.851243125,10.83951C5.753573125,10.93552,5.626323125,10.98401,5.499093125,10.98401C5.369863125,10.98401,5.241133125,10.9345,5.142953125,10.8355C4.948593125,10.639,4.950103125,10.32299,5.146963125,10.1285L7.305373125,7.9975L5.154963125,5.844C4.959613125000001,5.64849,4.960123125,5.332,5.155963125,5.137C5.351823125,4.94149,5.668383125,4.94251,5.864243125,5.13799L8.017643125,7.29399L10.178543125,5.16001C10.374893125,4.96551,10.692473125,4.967499999999999,10.886833125,5.16401C11.081653125,5.36052,11.079653125,5.67701,10.882823125,5.87101L8.724443125,8.00199L10.875333125,10.156Z" fill="#A5A5A5" fill-opacity="1"></path></g></g></svg>